<svg width="99" height="91" viewBox="0 0 99 91" fill="none" xmlns="http://www.w3.org/2000/svg">
<path d="M19.1966 0H76.5124L99 90.4532H0L19.1966 0Z" fill="#0073DE"/>
<path d="M19.3189 58.2249H82.8899V62.5593C82.8899 62.5593 72.2354 64.6982 71.8596 70.5231C71.4838 76.348 82.8899 78.2458 82.8899 78.2458V82.9939H47.802C47.802 82.9939 45.4064 82.8781 45.5913 81.4474C45.7762 80.0167 48.4394 78.0875 49.2177 77.476C49.996 76.8646 53.1619 76.4671 52.4479 74.4025C51.734 72.338 48.2439 70.0976 46.6668 69.3439C45.0896 68.5902 31.133 66.2809 24.2188 63.4946C17.3046 60.7083 19.3189 58.2249 19.3189 58.2249Z" fill="black"/>
<path d="M48.2718 82.9932C48.2718 82.9932 48.3113 83.4632 49.364 83.529C50.4166 83.5949 50.4166 82.9932 50.4166 82.9932L52.1802 21.7181C52.1238 21.2354 52.0064 20.7618 51.8309 20.3085C51.7089 20.0178 51.4858 19.7811 51.2029 19.642C51.2029 19.642 52.1217 17.5001 52.1799 15.6377C52.2193 14.5352 51.9256 13.4463 51.3373 12.513C51.6753 12.0661 51.9582 11.5802 52.1799 11.0657C52.6409 10.0703 52.6774 7.58647 49.89 7.54602C47.4798 7.5111 46.9105 9.22145 47.0512 10.3419C47.1919 11.4624 47.983 12.5127 47.983 12.5127C47.3454 13.4275 47.0187 14.5229 47.0512 15.6375C47.1072 17.5001 48.2726 19.6417 48.2726 19.6417C47.8859 19.7405 47.5488 19.9776 47.3253 20.3083C47.02 20.8273 47.0512 21.7179 47.0512 21.7179L48.2718 82.9932Z" fill="white"/>
<path d="M45.73 75.376C45.4433 75.376 44.9673 75.1924 44.4917 74.6771C43.9351 74.0379 43.5728 73.2529 43.4476 72.4146C43.3505 71.8713 43.3707 71.3135 43.5069 70.7786C43.6256 70.3141 43.8099 69.8689 44.0543 69.4564C44.3094 69.0157 44.6211 68.6102 44.9816 68.2505L44.9793 68.2493C44.3909 67.7604 43.8505 67.2164 43.3655 66.6248C42.914 66.0823 42.5241 65.4913 42.203 64.8628C41.8538 64.1921 41.6372 63.4604 41.5649 62.7077C41.5198 61.9202 41.6161 61.1309 41.8493 60.3774C42.0698 59.6354 42.359 58.9156 42.7133 58.2274C43.0984 57.4632 43.5437 56.7307 44.0448 56.037H44.0433C43.4479 55.449 42.913 54.8029 42.4465 54.1083C42.0069 53.4659 41.6413 52.7758 41.3567 52.0513C41.0434 51.2653 40.8824 50.4269 40.8821 49.5807C40.8915 48.7919 41.0641 48.0135 41.3891 47.2946C41.6621 46.6949 42.0232 46.1394 42.4603 45.6463C42.909 45.1298 43.4294 44.6802 44.0056 44.3113H44.0031C42.7592 43.6557 41.6105 42.8337 40.5884 41.8681C39.7268 41.0727 39.0299 40.1157 38.5374 39.0514C38.0164 37.9004 37.9081 36.605 38.2307 35.3835C38.4984 34.2858 39.0113 33.263 39.731 32.3919C40.2897 31.7366 40.9772 31.2031 41.7508 30.8248C42.6295 30.3898 43.592 30.1505 44.5721 30.1234H44.6012C44.8647 30.149 45.1084 30.2739 45.2831 30.4728C45.3441 30.5653 45.3838 30.6702 45.3993 30.7799C45.4148 30.8896 45.4057 31.0014 45.3727 31.1072C45.2308 31.5516 44.9656 31.9466 44.608 32.2462C44.4207 32.418 44.219 32.5735 44.0051 32.7107H44.0068C44.3675 32.8946 44.6979 33.1326 44.9866 33.4164C45.1804 33.628 45.2889 33.9038 45.2911 34.1907C45.295 34.5016 45.1869 34.8035 44.9866 35.0413C44.8134 35.2003 44.6182 35.3335 44.407 35.4368L44.404 35.4385C43.5247 35.943 42.1945 36.7055 42.8492 38.505C43.0444 39.0416 43.4896 39.533 44.1729 39.9656C44.8242 40.3587 45.5225 40.668 46.2513 40.8861C47.1531 41.1671 48.0764 41.3735 49.012 41.5034C49.0256 41.5034 49.0766 41.5049 49.1569 41.5049C49.8966 41.5049 52.4324 41.4149 54.0099 40.258C54.9562 39.5641 55.5393 38.4786 55.8619 37.69C56.0703 37.1862 56.2301 36.6636 56.3392 36.1294L56.3357 36.1281C55.9334 35.9618 55.5406 35.7735 55.159 35.5641C54.6063 35.2574 53.9217 34.7989 53.7956 34.3583C53.6694 33.9176 54.1021 33.4923 54.4872 33.2142C54.7627 33.0202 55.0554 32.852 55.3617 32.7117H55.3604H55.3592C55.0781 32.5177 54.82 32.2924 54.5897 32.0402C54.3929 31.8292 54.2316 31.5875 54.1124 31.3247C53.9885 31.0575 53.9523 30.758 54.0091 30.469C54.1136 29.9802 54.4437 29.734 54.9909 29.734C55.2845 29.7418 55.5748 29.7981 55.8501 29.9005C56.7331 30.3092 57.5421 30.8618 58.244 31.5357C58.9189 32.1712 59.4759 32.9211 59.8893 33.7508C60.3897 34.7784 60.6457 35.9077 60.6372 37.0506C60.6434 38.2039 60.3707 39.3416 59.8423 40.3668C59.3961 41.2148 58.804 41.9776 58.0933 42.6203C57.3398 43.3146 56.481 43.8851 55.5489 44.3105L55.5511 44.3123C56.1071 44.8808 56.6009 45.5069 57.0241 46.1802C57.428 46.8113 57.7563 47.4878 58.0021 48.1957C58.2789 48.9828 58.4044 49.8152 58.3719 50.6489C58.3287 51.4538 58.111 52.2396 57.734 52.9519C57.4055 53.5717 56.9892 54.1409 56.498 54.6417C55.9793 55.181 55.3922 55.6502 54.7517 56.0372H54.7532C55.2078 56.5274 55.5932 57.0774 55.8988 57.6719C56.2164 58.2728 56.4571 58.9112 56.6151 59.5722C56.8087 60.3886 56.8675 61.2312 56.7892 62.0666C56.7138 62.8956 56.4953 63.7053 56.1435 64.4598C55.8589 65.0662 55.4935 65.6312 55.0572 66.1395C54.6327 66.6479 54.1357 67.0909 53.582 67.4544L53.584 67.4564C53.9005 67.834 54.181 68.2405 54.4219 68.6703C54.6426 69.0566 54.819 69.4666 54.9477 69.8925C55.0858 70.3343 55.1303 70.8 55.0783 71.2599C54.9784 72.0704 54.7405 72.8579 54.3749 73.5881C54.0232 74.2453 53.6185 74.6073 53.2341 74.6073C53.1933 74.6073 53.1527 74.6033 53.1127 74.5952C52.6857 74.51 52.6447 73.832 52.5917 72.9733C52.5402 72.1375 52.4759 71.0972 52.0011 70.3606C51.1524 69.0467 49.4165 68.9801 49.0771 68.9801C49.0411 68.9801 49.019 68.9801 49.0132 68.9801C48.8953 68.9587 48.7756 68.9485 48.6558 68.9497C48.1201 68.9497 47.1373 69.1328 46.5706 70.3593C46.1252 71.3235 46.1395 72.66 46.151 73.734V73.737C46.1598 74.5734 46.1669 75.2338 45.9327 75.3361C45.8687 75.3634 45.7996 75.377 45.73 75.376ZM49.2182 60.1342C47.3481 60.1342 45.8267 61.4865 45.8267 63.1489C45.8267 64.8113 47.3481 66.1636 49.2182 66.1636C51.0884 66.1636 52.6098 64.8113 52.6098 63.1489C52.6098 61.4865 51.0884 60.1342 49.2185 60.1342H49.2182ZM49.7207 46.568C47.2964 46.568 45.3243 48.0895 45.3243 49.9596C45.3376 50.4319 45.4609 50.8947 45.6845 51.311C45.908 51.7273 46.2256 52.0858 46.612 52.3578C47.5114 53.0207 48.6038 53.3697 49.7209 53.3511C50.838 53.3698 51.9303 53.0207 52.8296 52.3578C53.2255 52.0954 53.5503 51.7391 53.775 51.3206C53.9997 50.9021 54.1173 50.4346 54.1173 49.9596C54.1173 49.4846 53.9997 49.017 53.775 48.5986C53.5503 48.1801 53.2255 47.8238 52.8296 47.5614C51.9303 46.8983 50.8379 46.5493 49.7207 46.568Z" fill="white"/>
<path d="M49.7232 22.6193C49.7232 22.6193 47.4039 23.2084 43.5549 20.0066C39.7059 16.8047 39.3301 9.33352 34.3272 9.33352C30.8806 9.88948 22.2086 24.3983 22.2086 24.3983C22.2086 24.3983 20.4852 27.2333 22.2086 27.7335C23.932 28.2337 25.7322 25.5227 25.7322 25.5227C25.7322 25.5227 25.682 27.9184 26.4334 28.2472C27.1848 28.5761 28.7387 26.8381 28.7387 26.8381C28.7387 26.8381 29.0432 28.0621 29.9358 27.7332C30.8284 27.4044 32.3088 25.5225 32.3088 25.5225C32.3088 25.5225 32.4747 27.0148 33.16 27.3436C33.8453 27.6725 35.0499 26.8376 35.0499 26.8376C35.0499 26.8376 35.6436 29.0112 36.6075 29.0112C37.5715 29.0112 38.4163 26.8376 38.4163 26.8376C38.4163 26.8376 39.5617 29.3401 40.6656 29.0112C41.7695 28.6824 42.3887 25.787 42.3887 25.787C42.9796 26.6762 43.8354 27.3569 44.8347 27.7327C46.5578 28.4138 49.7245 28.247 49.7245 28.247C49.7245 28.247 52.6199 28.6364 54.3973 27.9553C56.1747 27.2743 56.8309 25.5227 56.8309 25.5227C56.8309 25.5227 57.3821 28.459 58.344 28.7886C59.3059 29.1183 60.6786 26.8429 60.6786 26.8429C60.6786 26.8429 61.7255 29.1753 62.7354 29.011C63.7453 28.8467 64.0644 26.1797 64.0644 26.1797C64.0644 26.1797 65.3746 27.8584 66.0707 27.6212C66.7669 27.3841 66.8495 25.2308 66.8495 25.2308C66.8495 25.2308 67.7765 27.4567 68.7394 27.6212C69.7024 27.7858 70.7349 26.1797 70.7349 26.1797C70.7349 26.1797 71.5745 28.4271 72.6862 28.2465C73.7979 28.0659 73.4087 25.522 73.4087 25.522C73.4087 25.522 74.743 28.3714 76.744 28.2465C78.745 28.1217 77.4667 25.2318 77.4667 25.2318C77.4667 25.2318 68.4056 8.77658 65.0148 8.94414C61.1236 9.38881 58.7199 16.707 54.7864 20.0063C50.853 23.3057 49.7232 22.6193 49.7232 22.6193Z" fill="white"/>
</svg>
